<svg width="698" height="361" viewBox="0 0 698 361" fill="none" xmlns="http://www.w3.org/2000/svg">
<g clip-path="url(#clip0_10_5)">
<path d="M694.269 0H3.73089C1.67038 0 0 1.22181 0 2.72899V358.271C0 359.778 1.67038 361 3.73089 361H694.269C696.33 361 698 359.778 698 358.271V2.72899C698 1.22181 696.33 0 694.269 0Z" fill="url(#paint0_linear_10_5)"/>
<path fill-rule="evenodd" clip-rule="evenodd" d="M273.949 190.703C223.312 186.636 144.805 225.46 84.5669 225.46C59.4936 225.46 15.4457 196.397 0 215.992V358.271C0 359.783 1.66398 361 3.73089 361H694.269C696.336 361 698 359.783 698 358.271V193.402C681.648 189.99 661.382 216.158 641.714 204.538C609.379 185.435 506.918 196.566 451.438 206.357C310.9 231.16 350.016 196.813 273.949 190.703Z" fill="#ECE5CE"/>
<path d="M288.827 342.702C324.412 348.201 362.709 329.106 374.365 300.05C386.021 270.995 366.622 242.983 331.037 237.483C295.452 231.984 257.156 251.08 245.5 280.135C233.844 309.19 253.242 337.202 288.827 342.702Z" fill="#EDC951"/>
<path d="M289.274 341.955C312.456 345.563 340.498 325.269 351.907 296.626C363.316 267.983 353.772 241.839 330.59 238.231C307.408 234.622 279.366 254.917 267.957 283.559C256.548 312.202 266.092 338.346 289.274 341.955Z" fill="#FFEFD3"/>
<path d="M290.656 340.848C298.156 342.072 312.867 320.341 323.513 292.31C334.159 264.278 336.709 240.562 329.208 239.337C321.708 238.113 306.998 259.844 296.352 287.876C285.706 315.907 283.156 339.623 290.656 340.848Z" fill="#EDC951"/>
<path d="M324.898 245.682C331.332 246.702 337.073 246.185 337.721 244.527C338.369 242.868 333.68 240.697 327.246 239.677C320.813 238.657 315.072 239.174 314.423 240.832C313.775 242.491 318.465 244.662 324.898 245.682Z" fill="#F4DCB5"/>
<path d="M605.315 281.533C611.115 283.292 601.257 298.611 604.599 302.487C607.941 306.363 630.922 306.546 630.433 311.114C629.945 315.683 607.289 313.774 603.253 317.277C599.218 320.78 605.738 336.837 599.658 337.921C593.578 339.004 589.23 322.617 583.418 320.897C577.606 319.178 559.151 328.793 555.812 324.92C552.473 321.047 572.407 312.709 572.825 308.139C573.243 303.569 554.8 293.408 558.826 289.908C562.853 286.407 579.891 297.949 585.974 296.811C592.056 295.673 599.515 279.774 605.315 281.533Z" fill="#E3AD40"/>
<path d="M602.564 287.548C607.179 288.908 599.631 300.809 602.266 303.885C604.902 306.96 623.128 307.419 622.782 311.038C622.435 314.656 604.401 313.036 601.189 315.8C597.978 318.564 603.313 331.152 598.515 332.051C593.716 332.95 589.978 319.952 585.392 318.568C580.807 317.184 565.948 324.732 563.344 321.634C560.74 318.535 576.597 312.091 576.915 308.464C577.234 304.838 562.706 296.906 565.914 294.134C569.121 291.362 582.52 300.457 587.329 299.557C592.138 298.657 597.948 286.188 602.564 287.548Z" stroke="#FFFEE4" stroke-width="2.6" stroke-linecap="round" stroke-linejoin="round" stroke-dasharray="2.6 10.4"/>
<path d="M554.681 224L513.744 231.361C509.667 232.095 507.585 235.411 509.093 238.769L517.286 257.017C518.794 260.376 523.322 262.504 527.399 261.77L568.335 254.409C572.412 253.676 574.495 250.359 572.987 247.001L564.793 228.753C563.285 225.395 558.758 223.267 554.681 224Z" fill="#E85A50"/>
<path d="M507.583 232.318C507.013 231.981 506.233 232.007 505.842 232.376C505.451 232.745 505.597 233.318 506.168 233.655L509.414 235.573C509.985 235.91 510.764 235.884 511.155 235.515C511.546 235.146 511.401 234.573 510.83 234.236L507.583 232.318Z" fill="#E85A50"/>
<path d="M562.999 220.849L563.281 220.904C564.169 221.076 564.615 221.643 564.276 222.171L562.348 225.173C562.009 225.701 561.014 225.989 560.125 225.817L559.844 225.762C558.955 225.59 558.51 225.023 558.849 224.496L560.777 221.493C561.116 220.966 562.111 220.677 562.999 220.849Z" fill="#E85A50"/>
<path fill-rule="evenodd" clip-rule="evenodd" d="M490.104 229.588C490.104 229.588 496.577 234.359 501.99 235.167C507.403 235.975 512.509 232.091 511.275 229.346C510.041 226.602 504.358 221.986 504.358 221.986L502.351 230.355L490.104 229.588Z" fill="#E85A50"/>
<path fill-rule="evenodd" clip-rule="evenodd" d="M574.585 212.864C574.585 212.864 573.049 219.072 569.118 221.558C565.186 224.044 557.611 222.438 556.377 219.693C555.143 216.948 556.135 211.134 556.135 211.134L564.807 217.586L574.585 212.864Z" fill="#E85A50"/>
<path d="M529.876 232.98C531.579 232.691 532.392 231.267 531.693 229.799C530.993 228.331 529.046 227.374 527.344 227.663C525.641 227.952 524.828 229.376 525.527 230.844C526.226 232.312 528.174 233.269 529.876 232.98Z" fill="#010002"/>
<path d="M543.846 230.076C545.549 229.788 546.362 228.363 545.663 226.895C544.963 225.427 543.016 224.471 541.314 224.759C539.611 225.048 538.798 226.472 539.497 227.94C540.197 229.409 542.144 230.365 543.846 230.076Z" fill="#010002"/>
<path fill-rule="evenodd" clip-rule="evenodd" d="M510.33 245.836L497.678 244.579L495.738 253.835C495.738 253.835 494.098 246.721 494.18 243.936C494.262 241.151 506.832 241.498 509.947 242.821C513.062 244.144 510.33 245.836 510.33 245.836Z" fill="#E85A50"/>
<path fill-rule="evenodd" clip-rule="evenodd" d="M518.053 252.986C518.053 252.986 507.959 250.62 506.659 252.408C505.359 254.195 504.529 259.977 504.529 259.977C504.529 259.977 506.631 254.606 509.424 254.447C512.218 254.287 518.053 252.986 518.053 252.986Z" fill="#E85A50"/>
<path fill-rule="evenodd" clip-rule="evenodd" d="M519.083 258.687C519.083 258.687 513.942 257.679 511.039 259.109C508.137 260.54 507.64 266.261 507.64 266.261C507.64 266.261 509.492 261.876 512.145 261.427C514.798 260.978 519.083 258.687 519.083 258.687Z" fill="#E85A50"/>
<path fill-rule="evenodd" clip-rule="evenodd" d="M568.036 233.239L577.682 228.228L587.547 235.497C587.547 235.497 582.628 228.935 580.087 226.592C577.545 224.248 567.161 228.46 565.686 230.556C564.21 232.652 568.036 233.239 568.036 233.239Z" fill="#E85A50"/>
<path fill-rule="evenodd" clip-rule="evenodd" d="M566.444 242.327C566.444 242.327 572.943 237.151 575.625 238.264C578.308 239.377 584.116 244.036 584.116 244.036C584.116 244.036 577.589 240.126 575.072 240.866C572.556 241.605 566.444 242.327 566.444 242.327Z" fill="#E85A50"/>
<path fill-rule="evenodd" clip-rule="evenodd" d="M569.493 247.672C569.493 247.672 572.975 245.204 576.706 245.512C580.438 245.819 585.91 250.529 585.91 250.529C585.91 250.529 580.465 247.38 577.812 247.829C575.159 248.279 569.493 247.672 569.493 247.672Z" fill="#E85A50"/>
<path d="M171.562 279.301C178.365 281.257 166.803 298.285 170.723 302.594C174.642 306.902 201.596 307.105 201.023 312.184C200.45 317.263 173.878 315.14 169.144 319.034C164.411 322.928 172.058 340.777 164.927 341.981C157.796 343.185 152.697 324.969 145.88 323.058C139.063 321.147 117.417 331.835 113.501 327.53C109.584 323.224 132.965 313.956 133.455 308.876C133.946 303.796 112.313 292.501 117.036 288.611C121.759 284.72 141.743 297.55 148.877 296.285C156.011 295.02 164.759 277.346 171.562 279.301Z" fill="#E85A50"/>
<path d="M158.291 298.985C159.109 298.985 159.773 298.526 159.773 297.958C159.773 297.391 159.109 296.931 158.291 296.931C157.473 296.931 156.809 297.391 156.809 297.958C156.809 298.526 157.473 298.985 158.291 298.985Z" fill="#FEFFD6"/>
<path d="M155.326 306.186C156.254 306.186 157.006 305.664 157.006 305.021C157.006 304.378 156.254 303.856 155.326 303.856C154.398 303.856 153.646 304.378 153.646 305.021C153.646 305.664 154.398 306.186 155.326 306.186Z" fill="#FEFFD6"/>
<path d="M156.81 302.345C157.628 302.345 158.291 301.885 158.291 301.318C158.291 300.751 157.628 300.291 156.81 300.291C155.991 300.291 155.328 300.751 155.328 301.318C155.328 301.885 155.991 302.345 156.81 302.345Z" fill="#FEFFD6"/>
<path d="M164.144 289.5C164.962 289.5 165.626 289.04 165.626 288.473C165.626 287.906 164.962 287.446 164.144 287.446C163.326 287.446 162.663 287.906 162.663 288.473C162.663 289.04 163.326 289.5 164.144 289.5Z" fill="#FEFFD6"/>
<path d="M166.224 285.797C166.932 285.797 167.507 285.399 167.507 284.907C167.507 284.416 166.932 284.018 166.224 284.018C165.515 284.018 164.941 284.416 164.941 284.907C164.941 285.399 165.515 285.797 166.224 285.797Z" fill="#FEFFD6"/>
<path d="M167.457 282.953C168.275 282.953 168.938 282.493 168.938 281.926C168.938 281.359 168.275 280.899 167.457 280.899C166.638 280.899 165.975 281.359 165.975 281.926C165.975 282.493 166.638 282.953 167.457 282.953Z" fill="#FEFFD6"/>
<path d="M162.66 292.515C163.369 292.515 163.943 292.116 163.943 291.625C163.943 291.134 163.369 290.736 162.66 290.736C161.952 290.736 161.377 291.134 161.377 291.625C161.377 292.116 161.952 292.515 162.66 292.515Z" fill="#FEFFD6"/>
<path d="M160.277 295.956C161.095 295.956 161.759 295.497 161.759 294.929C161.759 294.362 161.095 293.902 160.277 293.902C159.459 293.902 158.796 294.362 158.796 294.929C158.796 295.497 159.459 295.956 160.277 295.956Z" fill="#FEFFD6"/>
<path d="M158.291 298.985C159.109 298.985 159.773 298.526 159.773 297.958C159.773 297.391 159.109 296.931 158.291 296.931C157.473 296.931 156.809 297.391 156.809 297.958C156.809 298.526 157.473 298.985 158.291 298.985Z" fill="#FEFFD6"/>
<path d="M155.326 306.186C156.254 306.186 157.006 305.664 157.006 305.021C157.006 304.378 156.254 303.856 155.326 303.856C154.398 303.856 153.646 304.378 153.646 305.021C153.646 305.664 154.398 306.186 155.326 306.186Z" fill="#FEFFD6"/>
<path d="M156.81 302.345C157.628 302.345 158.291 301.885 158.291 301.318C158.291 300.751 157.628 300.291 156.81 300.291C155.991 300.291 155.328 300.751 155.328 301.318C155.328 301.885 155.991 302.345 156.81 302.345Z" fill="#FEFFD6"/>
<path d="M164.144 289.5C164.962 289.5 165.626 289.04 165.626 288.473C165.626 287.906 164.962 287.446 164.144 287.446C163.326 287.446 162.663 287.906 162.663 288.473C162.663 289.04 163.326 289.5 164.144 289.5Z" fill="#FEFFD6"/>
<path d="M166.224 285.797C166.932 285.797 167.507 285.399 167.507 284.907C167.507 284.416 166.932 284.018 166.224 284.018C165.515 284.018 164.941 284.416 164.941 284.907C164.941 285.399 165.515 285.797 166.224 285.797Z" fill="#FEFFD6"/>
<path d="M167.457 282.953C168.275 282.953 168.938 282.493 168.938 281.926C168.938 281.359 168.275 280.899 167.457 280.899C166.638 280.899 165.975 281.359 165.975 281.926C165.975 282.493 166.638 282.953 167.457 282.953Z" fill="#FEFFD6"/>
<path d="M162.66 292.515C163.369 292.515 163.943 292.116 163.943 291.625C163.943 291.134 163.369 290.736 162.66 290.736C161.952 290.736 161.377 291.134 161.377 291.625C161.377 292.116 161.952 292.515 162.66 292.515Z" fill="#FEFFD6"/>
<path d="M160.277 295.956C161.095 295.956 161.759 295.497 161.759 294.929C161.759 294.362 161.095 293.902 160.277 293.902C159.459 293.902 158.796 294.362 158.796 294.929C158.796 295.497 159.459 295.956 160.277 295.956Z" fill="#FEFFD6"/>
<path d="M167.587 309.301C167.774 309.882 168.546 310.288 169.311 310.209C170.076 310.129 170.545 309.594 170.358 309.014C170.171 308.433 169.399 308.027 168.634 308.106C167.869 308.186 167.4 308.721 167.587 309.301Z" fill="#FEFFD6"/>
<path d="M156.903 308.545C157.146 309.217 158.021 309.698 158.858 309.621C159.694 309.544 160.175 308.937 159.932 308.266C159.688 307.595 158.813 307.113 157.977 307.19C157.14 307.267 156.659 307.874 156.903 308.545Z" fill="#FEFFD6"/>
<path d="M162.603 308.875C162.818 309.467 163.59 309.891 164.327 309.823C165.065 309.755 165.489 309.22 165.274 308.628C165.06 308.036 164.288 307.612 163.55 307.68C162.813 307.748 162.389 308.283 162.603 308.875Z" fill="#FEFFD6"/>
<path d="M182.15 311.566C182.364 312.158 183.136 312.583 183.874 312.515C184.611 312.447 185.035 311.912 184.821 311.32C184.606 310.728 183.834 310.303 183.097 310.371C182.359 310.439 181.935 310.974 182.15 311.566Z" fill="#FEFFD6"/>
<path d="M187.762 312.327C187.948 312.839 188.616 313.207 189.255 313.148C189.894 313.089 190.261 312.626 190.075 312.113C189.889 311.601 189.221 311.233 188.582 311.292C187.944 311.351 187.577 311.814 187.762 312.327Z" fill="#FEFFD6"/>
<path d="M192.036 312.648C192.25 313.239 193.022 313.664 193.76 313.596C194.497 313.528 194.921 312.993 194.706 312.401C194.492 311.809 193.72 311.384 192.983 311.453C192.245 311.521 191.821 312.056 192.036 312.648Z" fill="#FEFFD6"/>
<path d="M177.589 311.105C177.775 311.617 178.443 311.985 179.082 311.926C179.72 311.867 180.087 311.404 179.902 310.891C179.716 310.379 179.047 310.011 178.409 310.07C177.77 310.129 177.403 310.592 177.589 311.105Z" fill="#FEFFD6"/>
<path d="M172.292 310.09C172.507 310.682 173.279 311.107 174.016 311.039C174.754 310.971 175.178 310.436 174.963 309.844C174.749 309.252 173.977 308.827 173.239 308.895C172.502 308.963 172.078 309.498 172.292 310.09Z" fill="#FEFFD6"/>
<path d="M157.092 317.194C156.434 317.471 156.281 318.105 156.751 318.61C157.221 319.114 158.135 319.299 158.793 319.022C159.451 318.745 159.604 318.111 159.134 317.606C158.664 317.102 157.75 316.917 157.092 317.194Z" fill="#FEFFD6"/>
<path d="M154.08 309.99C153.337 310.302 153.169 311.021 153.705 311.595C154.241 312.17 155.278 312.383 156.021 312.071C156.764 311.759 156.932 311.04 156.396 310.465C155.86 309.891 154.823 309.678 154.08 309.99Z" fill="#FEFFD6"/>
<path d="M155.771 313.798C155.116 314.073 154.968 314.707 155.441 315.213C155.913 315.72 156.828 315.908 157.483 315.633C158.138 315.357 158.286 314.724 157.813 314.217C157.341 313.71 156.427 313.523 155.771 313.798Z" fill="#FEFFD6"/>
<path d="M159.385 327.384C158.73 327.659 158.582 328.293 159.055 328.799C159.527 329.306 160.442 329.493 161.097 329.218C161.752 328.943 161.9 328.309 161.427 327.803C160.955 327.296 160.041 327.108 159.385 327.384Z" fill="#FEFFD6"/>
<path d="M160.466 331.294C159.899 331.532 159.771 332.081 160.18 332.519C160.589 332.958 161.381 333.121 161.948 332.882C162.515 332.644 162.643 332.095 162.234 331.657C161.825 331.218 161.033 331.055 160.466 331.294Z" fill="#FEFFD6"/>
<path d="M161.588 334.151C160.933 334.427 160.785 335.06 161.258 335.567C161.73 336.074 162.645 336.261 163.3 335.986C163.955 335.711 164.103 335.077 163.63 334.571C163.158 334.064 162.244 333.876 161.588 334.151Z" fill="#FEFFD6"/>
<path d="M158.345 324.289C157.778 324.527 157.65 325.076 158.059 325.515C158.468 325.953 159.26 326.116 159.827 325.877C160.394 325.639 160.523 325.09 160.113 324.652C159.704 324.213 158.912 324.051 158.345 324.289Z" fill="#FEFFD6"/>
<path d="M157.722 320.488C157.066 320.764 156.918 321.397 157.391 321.904C157.864 322.41 158.778 322.598 159.433 322.323C160.088 322.048 160.236 321.414 159.763 320.907C159.291 320.401 158.377 320.213 157.722 320.488Z" fill="#FEFFD6"/>
<path d="M142.989 313.629C142.346 313.323 141.423 313.469 140.926 313.953C140.429 314.438 140.546 315.078 141.189 315.384C141.831 315.689 142.755 315.543 143.252 315.059C143.749 314.574 143.631 313.934 142.989 313.629Z" fill="#FEFFD6"/>
<path d="M151.375 308.894C150.648 308.549 149.601 308.716 149.036 309.267C148.471 309.818 148.601 310.544 149.328 310.889C150.055 311.234 151.102 311.067 151.668 310.516C152.233 309.965 152.102 309.239 151.375 308.894Z" fill="#FEFFD6"/>
<path d="M146.98 311.46C146.339 311.156 145.416 311.303 144.917 311.788C144.419 312.274 144.534 312.914 145.175 313.218C145.816 313.522 146.739 313.375 147.238 312.89C147.736 312.404 147.621 311.764 146.98 311.46Z" fill="#FEFFD6"/>
<path d="M130.36 319.083C129.719 318.778 128.795 318.925 128.297 319.411C127.798 319.897 127.914 320.537 128.555 320.841C129.195 321.145 130.119 320.998 130.617 320.513C131.116 320.027 131 319.387 130.36 319.083Z" fill="#FEFFD6"/>
<path d="M125.59 321.299C125.035 321.035 124.235 321.163 123.803 321.583C123.372 322.004 123.472 322.558 124.026 322.822C124.581 323.085 125.381 322.958 125.813 322.537C126.244 322.117 126.144 321.562 125.59 321.299Z" fill="#FEFFD6"/>
<path d="M122.238 323.137C121.597 322.832 120.674 322.979 120.175 323.465C119.677 323.951 119.792 324.591 120.433 324.895C121.074 325.199 121.997 325.052 122.496 324.567C122.994 324.081 122.879 323.441 122.238 323.137Z" fill="#FEFFD6"/>
<path d="M134.058 317.204C133.503 316.941 132.703 317.068 132.272 317.489C131.84 317.909 131.94 318.463 132.495 318.727C133.05 318.99 133.85 318.863 134.281 318.442C134.713 318.022 134.613 317.468 134.058 317.204Z" fill="#FEFFD6"/>
<path d="M138.862 315.323C138.221 315.018 137.297 315.165 136.799 315.651C136.3 316.137 136.416 316.777 137.057 317.081C137.697 317.385 138.621 317.238 139.119 316.753C139.618 316.267 139.502 315.627 138.862 315.323Z" fill="#FEFFD6"/>
<path d="M142.656 302.461C142.941 301.888 142.578 301.315 141.844 301.182C141.11 301.048 140.284 301.405 139.998 301.978C139.713 302.551 140.076 303.124 140.81 303.257C141.544 303.391 142.37 303.034 142.656 302.461Z" fill="#FEFFD6"/>
<path d="M151.691 306.475C152.039 305.812 151.667 305.163 150.859 305.024C150.052 304.885 149.115 305.309 148.766 305.971C148.418 306.634 148.79 307.283 149.598 307.422C150.406 307.561 151.343 307.137 151.691 306.475Z" fill="#FEFFD6"/>
<path d="M146.83 304.393C147.138 303.809 146.809 303.236 146.097 303.114C145.385 302.991 144.559 303.365 144.251 303.949C143.944 304.533 144.273 305.106 144.985 305.229C145.697 305.351 146.523 304.977 146.83 304.393Z" fill="#FEFFD6"/>
<path d="M131.2 295.823C131.507 295.239 131.179 294.666 130.466 294.544C129.754 294.421 128.928 294.795 128.621 295.379C128.314 295.963 128.642 296.536 129.354 296.659C130.066 296.781 130.893 296.407 131.2 295.823Z" fill="#FEFFD6"/>
<path d="M126.701 293.386C126.967 292.88 126.683 292.384 126.066 292.278C125.449 292.171 124.734 292.495 124.468 293.001C124.202 293.507 124.486 294.003 125.103 294.109C125.72 294.215 126.435 293.891 126.701 293.386Z" fill="#FEFFD6"/>
<path d="M123.111 291.738C123.418 291.154 123.089 290.581 122.377 290.458C121.665 290.336 120.839 290.71 120.532 291.294C120.224 291.878 120.553 292.451 121.265 292.573C121.977 292.696 122.803 292.322 123.111 291.738Z" fill="#FEFFD6"/>
<path d="M134.954 297.687C135.22 297.181 134.936 296.685 134.319 296.579C133.702 296.472 132.987 296.796 132.721 297.302C132.455 297.808 132.739 298.304 133.356 298.41C133.972 298.516 134.688 298.192 134.954 297.687Z" fill="#FEFFD6"/>
<path d="M139.005 300.25C139.312 299.666 138.983 299.093 138.271 298.971C137.559 298.848 136.733 299.222 136.425 299.806C136.118 300.39 136.447 300.963 137.159 301.086C137.871 301.208 138.697 300.834 139.005 300.25Z" fill="#FEFFD6"/>
<path d="M179.577 89.8808L178.786 89.9998C177.107 90.2523 176.062 91.5751 176.452 92.9542L229.222 279.412C229.613 280.791 231.29 281.705 232.969 281.452L233.761 281.333C235.44 281.081 236.484 279.758 236.094 278.379L183.324 91.9208C182.934 90.5416 181.256 89.6283 179.577 89.8808Z" fill="url(#paint1_linear_10_5)"/>
<path d="M169.722 37.0625C169.791 39.5644 156.188 41.1658 154.597 38.8485C153.007 36.5313 152.267 14.0206 153.783 13.8482C155.3 13.6757 169.654 34.5606 169.722 37.0625Z" fill="#E6E6E6"/>
<path fill-rule="evenodd" clip-rule="evenodd" d="M182.639 26.8755C219.906 53.5753 230.021 78.1617 234.024 102.225L295.199 94.6181C291.347 80.3647 282.221 67.0285 268.747 55.9593C255.272 44.8901 237.926 36.4808 218.465 31.5826C206.92 28.7116 194.832 27.1233 182.639 26.8755Z" fill="#E85A50"/>
<path fill-rule="evenodd" clip-rule="evenodd" d="M128.925 35.4057C118.316 38.6391 108.477 42.9854 99.7395 48.2989C84.3743 57.6423 72.8378 69.7167 66.2976 83.3C59.7575 96.8833 58.4458 111.493 62.4954 125.651L128.376 116.89C114.892 76.6168 126.671 56.7204 137.984 33.0205C134.917 33.7255 131.894 34.5213 128.925 35.4057Z" fill="#5BB7B6"/>
<path fill-rule="evenodd" clip-rule="evenodd" d="M59.8278 125.106C59.8278 125.106 59.222 135.507 63.6717 135.237C99.0619 133.092 105.739 131.782 125.055 127.816C129.998 126.801 127.32 115.99 127.32 115.99L59.8278 125.106Z" fill="url(#paint2_linear_10_5)"/>
<path fill-rule="evenodd" clip-rule="evenodd" d="M128.925 35.4057C118.316 38.6391 108.477 42.9854 99.7395 48.2989C84.3743 57.6423 72.8378 69.7167 66.2976 83.3C59.7575 96.8833 58.4458 111.493 62.4954 125.651L128.376 116.89C114.892 76.6168 126.671 56.7204 137.984 33.0205C134.917 33.7255 131.894 34.5213 128.925 35.4057Z" fill="#5BB7B6"/>
<path fill-rule="evenodd" clip-rule="evenodd" d="M128.925 35.4057C118.316 38.6391 108.477 42.9854 99.7395 48.2989C84.3743 57.6423 72.8378 69.7167 66.2976 83.3C59.7575 96.8833 58.4458 111.493 62.4954 125.651L128.376 116.89C114.892 76.6168 126.671 56.7204 137.984 33.0205C134.917 33.7255 131.894 34.5213 128.925 35.4057Z" fill="#5BB7B6"/>
<path fill-rule="evenodd" clip-rule="evenodd" d="M128.195 115.281C128.195 115.281 129.75 125.939 134.678 125.918C172.989 125.761 185.226 124.233 226.592 115.405C232.496 114.145 231.767 101.638 231.767 101.638L128.195 115.281Z" fill="url(#paint3_linear_10_5)"/>
<path fill-rule="evenodd" clip-rule="evenodd" d="M232.65 101.101C232.65 101.101 234.088 110.513 238.651 110.851C254.893 112.052 264.611 109.039 291.869 104.824C296.853 104.054 294.823 93.2411 294.823 93.2411L232.65 101.101Z" fill="url(#paint4_linear_10_5)"/>
<path fill-rule="evenodd" clip-rule="evenodd" d="M182.639 26.8755C219.906 53.5753 230.021 78.1617 234.024 102.225L295.199 94.6181C291.347 80.3647 282.221 67.0285 268.747 55.9593C255.272 44.8901 237.926 36.4808 218.465 31.5826C206.92 28.7116 194.832 27.1233 182.639 26.8755Z" fill="#E85A50"/>
<path fill-rule="evenodd" clip-rule="evenodd" d="M182.639 26.8755C219.906 53.5753 230.021 78.1617 234.024 102.225L295.199 94.6181C291.347 80.3647 282.221 67.0285 268.747 55.9593C255.272 44.8901 237.926 36.4808 218.465 31.5826C206.92 28.7116 194.832 27.1233 182.639 26.8755Z" fill="#E85A50"/>
<path d="M62.4055 125.612C58.2595 111.238 59.6024 96.4047 66.2982 82.6138C72.9939 68.823 84.8049 56.564 100.536 47.0778C116.267 37.5916 135.359 31.2148 155.88 28.5928C176.401 25.9709 197.623 27.197 217.397 32.1468C237.171 37.0967 254.796 45.5947 268.487 56.7808C282.179 67.9668 291.451 81.4438 295.365 95.8477L178.756 110.269L62.4055 125.612Z" fill="#FEFFD6"/>
<path fill-rule="evenodd" clip-rule="evenodd" d="M128.925 35.4057C118.316 38.6391 108.477 42.9854 99.7395 48.2989C84.3743 57.6423 72.8378 69.7167 66.2976 83.3C59.7575 96.8833 58.4458 111.493 62.4954 125.651L128.376 116.89C114.892 76.6168 126.671 56.7204 137.984 33.0205C134.917 33.7255 131.894 34.5213 128.925 35.4057Z" fill="#5BB7B6"/>
<path fill-rule="evenodd" clip-rule="evenodd" d="M182.639 26.8755C219.906 53.5753 230.021 78.1617 234.024 102.225L295.199 94.6181C291.347 80.3647 282.221 67.0285 268.747 55.9593C255.272 44.8901 237.926 36.4808 218.465 31.5826C206.92 28.7116 194.832 27.1233 182.639 26.8755Z" fill="#E85A50"/>
<path fill-rule="evenodd" clip-rule="evenodd" d="M66.7727 124.275C64.4545 125.315 62.8792 126.039 62.8792 126.039C62.8792 126.039 61.9477 130.264 63.8243 131.583C65.7008 132.902 74.0036 133.159 74.0036 133.159C74.0036 133.159 70.9786 130.555 84.1389 127.211C97.2992 123.868 108.402 121.78 108.402 121.78C108.402 121.78 107.973 120.479 107.076 118.86L66.7727 124.275Z" fill="#4BABAA"/>
<path opacity="0.384" fill-rule="evenodd" clip-rule="evenodd" d="M132.671 114.74C131.664 116.033 131.418 117.363 132.28 119.086C133.142 120.809 134.038 123.452 135.028 125.881C146.004 125.833 154.822 125.664 162.825 125.245C161.875 123.935 158.525 122.9 156.747 123.127C154.115 123.461 150.167 123.964 150.167 123.964C150.167 123.964 141.566 123.238 141.31 120.51C141.055 117.781 147.356 115.913 150.138 115.245C152.921 114.578 204.082 108.948 206.428 108.148C207.75 107.696 210.901 105.816 211.88 104.376L132.671 114.74Z" fill="#C4BDB6"/>
<path fill-rule="evenodd" clip-rule="evenodd" d="M237.268 100.599C237.607 101.246 238.019 101.814 238.508 102.028C239.96 102.662 251.789 102.854 257.802 101.076C263.815 99.2991 284.554 99.5506 285.855 100.52C286.532 101.023 287.538 103.47 288.74 105.457C289.806 105.287 290.857 105.117 291.981 104.942C292.715 104.827 293.295 104.491 293.753 104.004C293.575 101.813 292.736 99.4254 292.749 98.4406C292.762 97.4104 291.722 95.5057 290.675 93.7953L237.268 100.599Z" fill="#E75247"/>
<path fill-rule="evenodd" clip-rule="evenodd" d="M128.925 35.4057C118.316 38.6391 108.477 42.9854 99.7395 48.2989C84.3743 57.6423 72.8378 69.7167 66.2976 83.3C59.7575 96.8833 58.4458 111.493 62.4954 125.651L128.376 116.89C114.892 76.6168 126.671 56.7204 137.984 33.0205C134.917 33.7255 131.894 34.5213 128.925 35.4057Z" fill="#5BB7B6"/>
<path fill-rule="evenodd" clip-rule="evenodd" d="M128.925 35.4057C118.316 38.6391 108.477 42.9854 99.7395 48.2989C84.3743 57.6423 72.8378 69.7167 66.2976 83.3C59.7575 96.8833 58.4458 111.493 62.4954 125.651L128.376 116.89C114.892 76.6168 126.671 56.7204 137.984 33.0205C134.917 33.7255 131.894 34.5213 128.925 35.4057Z" fill="#5BB7B6"/>
<path fill-rule="evenodd" clip-rule="evenodd" d="M128.925 35.4057C118.316 38.6391 108.477 42.9854 99.7395 48.2989C84.3743 57.6423 72.8378 69.7167 66.2976 83.3C59.7575 96.8833 58.4458 111.493 62.4954 125.651L128.376 116.89C114.892 76.6168 126.671 56.7204 137.984 33.0205C134.917 33.7255 131.894 34.5213 128.925 35.4057Z" fill="#5BB7B6"/>
<path fill-rule="evenodd" clip-rule="evenodd" d="M128.925 35.4057C118.316 38.6391 108.477 42.9854 99.7395 48.2989C84.3743 57.6423 72.8378 69.7167 66.2976 83.3C59.7575 96.8833 58.4458 111.493 62.4954 125.651L128.376 116.89C114.892 76.6168 126.671 56.7204 137.984 33.0205C134.917 33.7255 131.894 34.5213 128.925 35.4057Z" fill="#5BB7B6"/>
<path fill-rule="evenodd" clip-rule="evenodd" d="M182.639 26.8755C219.906 53.5753 230.021 78.1617 234.024 102.225L295.199 94.6181C291.347 80.3647 282.221 67.0285 268.747 55.9593C255.272 44.8901 237.926 36.4808 218.465 31.5826C206.92 28.7116 194.832 27.1233 182.639 26.8755Z" fill="#E85A50"/>
<path fill-rule="evenodd" clip-rule="evenodd" d="M182.639 26.8755C219.906 53.5753 230.021 78.1617 234.024 102.225L295.199 94.6181C291.347 80.3647 282.221 67.0285 268.747 55.9593C255.272 44.8901 237.926 36.4808 218.465 31.5826C206.92 28.7116 194.832 27.1233 182.639 26.8755Z" fill="#E85A50"/>
<path d="M500.561 320.975C503.652 320.975 506.158 319.549 506.158 317.791C506.158 316.033 503.652 314.607 500.561 314.607C497.471 314.607 494.965 316.033 494.965 317.791C494.965 319.549 497.471 320.975 500.561 320.975Z" fill="#F1D4AF"/>
<path d="M550.928 320.975C554.019 320.975 556.525 319.549 556.525 317.791C556.525 316.033 554.019 314.607 550.928 314.607C547.838 314.607 545.332 316.033 545.332 317.791C545.332 319.549 547.838 320.975 550.928 320.975Z" fill="#F1D4AF"/>
<path d="M605.026 320.975C608.117 320.975 610.623 319.549 610.623 317.791C610.623 316.033 608.117 314.607 605.026 314.607C601.936 314.607 599.43 316.033 599.43 317.791C599.43 319.549 601.936 320.975 605.026 320.975Z" fill="#F1D4AF"/>
<path d="M611.866 274.582C614.957 274.582 617.463 273.157 617.463 271.398C617.463 269.64 614.957 268.214 611.866 268.214C608.776 268.214 606.27 269.64 606.27 271.398C606.27 273.157 608.776 274.582 611.866 274.582Z" fill="#F1D4AF"/>
<path d="M649.797 301.417C652.888 301.417 655.393 299.992 655.393 298.233C655.393 296.475 652.888 295.049 649.797 295.049C646.706 295.049 644.201 296.475 644.201 298.233C644.201 299.992 646.706 301.417 649.797 301.417Z" fill="#F1D4AF"/>
<path d="M403.558 320.975C406.649 320.975 409.155 319.549 409.155 317.791C409.155 316.033 406.649 314.607 403.558 314.607C400.467 314.607 397.962 316.033 397.962 317.791C397.962 319.549 400.467 320.975 403.558 320.975Z" fill="#F1D4AF"/>
<path d="M206.443 320.975C209.534 320.975 212.039 319.549 212.039 317.791C212.039 316.033 209.534 314.607 206.443 314.607C203.352 314.607 200.846 316.033 200.846 317.791C200.846 319.549 203.352 320.975 206.443 320.975Z" fill="#F1D4AF"/>
<path d="M31.7125 345.536C34.8033 345.536 37.3089 344.11 37.3089 342.352C37.3089 340.593 34.8033 339.168 31.7125 339.168C28.6218 339.168 26.1162 340.593 26.1162 342.352C26.1162 344.11 28.6218 345.536 31.7125 345.536Z" fill="#F1D4AF"/>
<path d="M97.0032 346.9C100.094 346.9 102.6 345.475 102.6 343.716C102.6 341.958 100.094 340.532 97.0032 340.532C93.9124 340.532 91.4069 341.958 91.4069 343.716C91.4069 345.475 93.9124 346.9 97.0032 346.9Z" fill="#F1D4AF"/>
<path d="M97.0032 255.024C100.094 255.024 102.6 253.599 102.6 251.84C102.6 250.082 100.094 248.656 97.0032 248.656C93.9124 248.656 91.4069 250.082 91.4069 251.84C91.4069 253.599 93.9124 255.024 97.0032 255.024Z" fill="#774F38"/>
<path d="M97.0032 255.024C100.094 255.024 102.6 253.599 102.6 251.84C102.6 250.082 100.094 248.656 97.0032 248.656C93.9124 248.656 91.4069 250.082 91.4069 251.84C91.4069 253.599 93.9124 255.024 97.0032 255.024Z" fill="#774F38"/>
<path d="M50.9888 255.024C54.0796 255.024 56.5851 253.599 56.5851 251.84C56.5851 250.082 54.0796 248.656 50.9888 248.656C47.898 248.656 45.3925 250.082 45.3925 251.84C45.3925 253.599 47.898 255.024 50.9888 255.024Z" fill="#774F38"/>
<path d="M276.708 226.37C279.799 226.37 282.304 224.944 282.304 223.186C282.304 221.428 279.799 220.002 276.708 220.002C273.617 220.002 271.112 221.428 271.112 223.186C271.112 224.944 273.617 226.37 276.708 226.37Z" fill="#774F38"/>
<path d="M430.918 344.626C434.009 344.626 436.514 343.2 436.514 341.442C436.514 339.684 434.009 338.258 430.918 338.258C427.827 338.258 425.322 339.684 425.322 341.442C425.322 343.2 427.827 344.626 430.918 344.626Z" fill="#774F38"/>
<path d="M443.354 290.956C446.445 290.956 448.951 289.531 448.951 287.772C448.951 286.014 446.445 284.588 443.354 284.588C440.264 284.588 437.758 286.014 437.758 287.772C437.758 289.531 440.264 290.956 443.354 290.956Z" fill="#F1D4AF"/>
<path d="M665.964 255.479C669.055 255.479 671.561 254.054 671.561 252.295C671.561 250.537 669.055 249.111 665.964 249.111C662.874 249.111 660.368 250.537 660.368 252.295C660.368 254.054 662.874 255.479 665.964 255.479Z" fill="#F1D4AF"/>
<path d="M204.577 349.174C207.668 349.174 210.174 347.749 210.174 345.99C210.174 344.232 207.668 342.807 204.577 342.807C201.487 342.807 198.981 344.232 198.981 345.99C198.981 347.749 201.487 349.174 204.577 349.174Z" fill="#F1D4AF"/>
<path d="M37.9307 310.968C41.0215 310.968 43.527 309.543 43.527 307.785C43.527 306.026 41.0215 304.601 37.9307 304.601C34.8399 304.601 32.3344 306.026 32.3344 307.785C32.3344 309.543 34.8399 310.968 37.9307 310.968Z" fill="#F1D4AF"/>
<path fill-rule="evenodd" clip-rule="evenodd" d="M389.592 63.4399C386.022 63.4139 381.348 63.811 375.395 65.0809C358.078 68.7753 343.648 83.5528 343.648 83.5528C343.648 83.5528 362.407 75.6363 372.509 74.5808C382.61 73.5252 399.205 77.7474 399.205 77.7474C399.205 77.7474 415.801 73.5252 425.902 74.5808C436.003 75.6363 454.763 83.5528 454.763 83.5528C454.763 83.5528 440.333 68.7753 423.016 65.0809C405.699 61.3866 399.205 69.8309 399.205 69.8309C399.205 69.8309 396.409 63.4896 389.592 63.4399Z" fill="#FDFDFD"/>
<path fill-rule="evenodd" clip-rule="evenodd" d="M582.729 29.7825C578.836 29.7542 573.739 30.1872 567.248 31.572C548.365 35.6006 532.629 51.7147 532.629 51.7147C532.629 51.7147 553.085 43.0821 564.101 41.9311C575.116 40.7801 593.212 45.3841 593.212 45.3841C593.212 45.3841 611.308 40.7801 622.323 41.9311C633.338 43.0821 653.795 51.7147 653.795 51.7147C653.795 51.7147 638.059 35.6006 619.176 31.572C600.293 27.5435 593.212 36.7516 593.212 36.7516C593.212 36.7516 590.163 29.8368 582.729 29.7825Z" fill="#FDFDFD"/>
</g>
<defs>
<linearGradient id="paint0_linear_10_5" x1="9.94905" y1="8.05088" x2="533.517" y2="511.215" gradientUnits="userSpaceOnUse">
<stop stop-color="#00A0B0"/>
<stop offset="0.52865" stop-color="#A7DBD8"/>
<stop offset="1" stop-color="#69D2E7"/>
</linearGradient>
<linearGradient id="paint1_linear_10_5" x1="187.855" y1="123.835" x2="212.368" y2="281.988" gradientUnits="userSpaceOnUse">
<stop stop-color="#E6E6E6"/>
<stop offset="0.402499" stop-color="#F2F2F2"/>
<stop offset="1" stop-color="#E6E6E6"/>
</linearGradient>
<linearGradient id="paint2_linear_10_5" x1="62.2237" y1="130.572" x2="131.3" y2="113.618" gradientUnits="userSpaceOnUse">
<stop stop-color="#5BB7B6"/>
<stop offset="1" stop-color="#75C3C2"/>
</linearGradient>
<linearGradient id="paint3_linear_10_5" x1="182.89" y1="109.482" x2="185.892" y2="122.917" gradientUnits="userSpaceOnUse">
<stop stop-color="#F6F7C3"/>
<stop offset="1" stop-color="#FEFFD6"/>
</linearGradient>
<linearGradient id="paint4_linear_10_5" x1="293.14" y1="103.669" x2="235.297" y2="109.462" gradientUnits="userSpaceOnUse">
<stop stop-color="#E85A50"/>
<stop offset="1" stop-color="#E3726A"/>
</linearGradient>
<clipPath id="clip0_10_5">
<rect width="698" height="361" fill="white"/>
</clipPath>
</defs>
</svg>
