<svg width="493" height="452" viewBox="0 0 493 452" fill="none" xmlns="http://www.w3.org/2000/svg">
<path d="M416.486 37.7803C345.932 -7.64202 173.799 4.22969 98.2409 37.7804C40.1961 63.5885 -58.676 179.33 73.9263 214.429C53.6033 306.109 12.6749 439.871 62.2131 440.903L413.484 444C501.552 444 419.693 204.193 419.693 204.193C539.786 163.416 467.025 70.2986 416.486 37.7803Z" fill="url(#paint0_linear_2_70)" stroke="#834C4C" stroke-width="15" stroke-linecap="round"/>
<path d="M316.5 292C267.522 363.944 204.454 349.405 175 289.5C171.233 280.753 175.061 277.597 182 282.5C227.743 318.336 255.431 317.34 308 282.5C313.635 278.95 321.286 282.983 316.5 292Z" fill="black" stroke="black" stroke-linecap="round"/>
<path fill-rule="evenodd" clip-rule="evenodd" d="M277.191 330.781C254.133 344.089 230.705 343.038 210.821 331.004C238.884 323.651 253.568 323.687 277.191 330.781Z" fill="#FA6060"/>
<path d="M277.191 330.781L277.441 331.214L278.444 330.635L277.335 330.302L277.191 330.781ZM210.821 331.004L210.695 330.521L209.552 330.82L210.563 331.432L210.821 331.004ZM276.942 330.348C254.041 343.565 230.807 342.516 211.08 330.577L210.563 331.432C230.603 343.561 254.226 344.612 277.441 331.214L276.942 330.348ZM210.948 331.488C224.961 327.816 235.601 325.998 245.672 325.975C255.739 325.952 265.265 327.721 277.048 331.26L277.335 330.302C265.495 326.746 255.867 324.951 245.67 324.975C235.477 324.999 224.744 326.839 210.695 330.521L210.948 331.488Z" fill="#FA6060"/>
<path d="M368.5 227.2C368.5 237.68 358.903 247.383 345.5 247.383C332.097 247.383 322.5 237.68 322.5 227.2C322.5 216.72 332.097 207.016 345.5 207.016C358.903 207.016 368.5 216.72 368.5 227.2Z" fill="#F8C8C8" stroke="#F8C8C8" stroke-width="15"/>
<path d="M178.5 227.2C178.5 237.68 168.903 247.383 155.5 247.383C142.097 247.383 132.5 237.68 132.5 227.2C132.5 216.72 142.097 207.016 155.5 207.016C168.903 207.016 178.5 216.72 178.5 227.2Z" fill="#F8C8C8" stroke="#F8C8C8" stroke-width="15"/>
<circle cx="189" cy="147" r="41" fill="white"/>
<path d="M197.5 155.5C197.5 164.346 189.558 172.5 178.5 172.5C167.442 172.5 159.5 164.346 159.5 155.5C159.5 146.654 167.442 138.5 178.5 138.5C189.558 138.5 197.5 146.654 197.5 155.5Z" fill="black" stroke="black" stroke-width="15"/>
<mask id="path-9-inside-1_2_70" fill="white">
<ellipse cx="170" cy="156.5" rx="8" ry="7.5"/>
</mask>
<ellipse cx="170" cy="156.5" rx="8" ry="7.5" fill="white"/>
<path d="M163 156.5C163 151.461 167.061 149 170 149V179C181.776 179 193 169.824 193 156.5H163ZM170 149C172.939 149 177 151.461 177 156.5H147C147 169.824 158.224 179 170 179V149ZM177 156.5C177 161.539 172.939 164 170 164V134C158.224 134 147 143.176 147 156.5H177ZM170 164C167.061 164 163 161.539 163 156.5H193C193 143.176 181.776 134 170 134V164Z" fill="white" mask="url(#path-9-inside-1_2_70)"/>
<circle cx="305" cy="147" r="41" fill="white"/>
<path d="M313.5 155.5C313.5 164.346 305.559 172.5 294.5 172.5C283.442 172.5 275.5 164.346 275.5 155.5C275.5 146.654 283.442 138.5 294.5 138.5C305.559 138.5 313.5 146.654 313.5 155.5Z" fill="black" stroke="black" stroke-width="15"/>
<mask id="path-13-inside-2_2_70" fill="white">
<ellipse cx="286" cy="156.5" rx="8" ry="7.5"/>
</mask>
<ellipse cx="286" cy="156.5" rx="8" ry="7.5" fill="white"/>
<path d="M279 156.5C279 151.461 283.061 149 286 149V179C297.776 179 309 169.824 309 156.5H279ZM286 149C288.939 149 293 151.461 293 156.5H263C263 169.824 274.224 179 286 179V149ZM293 156.5C293 161.539 288.939 164 286 164V134C274.224 134 263 143.176 263 156.5H293ZM286 164C283.061 164 279 161.539 279 156.5H309C309 143.176 297.776 134 286 134V164Z" fill="white" mask="url(#path-13-inside-2_2_70)"/>
<defs>
<linearGradient id="paint0_linear_2_70" x1="249.444" y1="8" x2="249.444" y2="444" gradientUnits="userSpaceOnUse">
<stop stop-color="#FCE6D1"/>
<stop offset="1" stop-color="#F6B070"/>
</linearGradient>
</defs>
</svg>
