<svg width="800" height="800" viewBox="0 0 800 800" fill="none" xmlns="http://www.w3.org/2000/svg">
<g opacity="0.2">
<path d="M570.486 237.78C499.932 192.358 327.799 204.23 252.241 237.78C194.196 263.589 95.324 379.33 227.926 414.429C207.603 506.109 166.675 639.871 216.213 640.903L567.484 644C655.552 644 573.693 404.193 573.693 404.193C693.786 363.416 621.025 270.299 570.486 237.78Z" fill="url(#paint0_linear_2_71)" stroke="#834C4C" stroke-width="15" stroke-linecap="round"/>
<path d="M470.5 492C421.522 563.944 358.454 549.405 329 489.5C325.233 480.753 329.061 477.597 336 482.5C381.743 518.336 409.431 517.34 462 482.5C467.635 478.95 475.286 482.983 470.5 492Z" fill="black" stroke="black" stroke-linecap="round"/>
<path fill-rule="evenodd" clip-rule="evenodd" d="M431.191 530.781C408.133 544.089 384.705 543.038 364.821 531.004C392.884 523.651 407.568 523.687 431.191 530.781Z" fill="#FA6060"/>
<path d="M431.191 530.781L431.441 531.214L432.444 530.635L431.335 530.302L431.191 530.781ZM364.821 531.004L364.695 530.521L363.552 530.82L364.563 531.432L364.821 531.004ZM430.942 530.348C408.041 543.565 384.807 542.516 365.08 530.577L364.563 531.432C384.603 543.561 408.226 544.612 431.441 531.214L430.942 530.348ZM364.948 531.488C378.961 527.816 389.601 525.998 399.672 525.975C409.739 525.952 419.265 527.721 431.048 531.26L431.335 530.302C419.495 526.746 409.867 524.951 399.67 524.975C389.477 524.999 378.744 526.839 364.695 530.521L364.948 531.488Z" fill="#FA6060"/>
<path d="M522.5 427.2C522.5 437.68 512.903 447.383 499.5 447.383C486.097 447.383 476.5 437.68 476.5 427.2C476.5 416.72 486.097 407.016 499.5 407.016C512.903 407.016 522.5 416.72 522.5 427.2Z" fill="#F8C8C8" stroke="#F8C8C8" stroke-width="15"/>
<path d="M332.5 427.2C332.5 437.68 322.903 447.383 309.5 447.383C296.097 447.383 286.5 437.68 286.5 427.2C286.5 416.72 296.097 407.016 309.5 407.016C322.903 407.016 332.5 416.72 332.5 427.2Z" fill="#F8C8C8" stroke="#F8C8C8" stroke-width="15"/>
<circle cx="343" cy="347" r="41" fill="white"/>
<path d="M351.5 355.5C351.5 364.346 343.558 372.5 332.5 372.5C321.442 372.5 313.5 364.346 313.5 355.5C313.5 346.654 321.442 338.5 332.5 338.5C343.558 338.5 351.5 346.654 351.5 355.5Z" fill="black" stroke="black" stroke-width="15"/>
<mask id="path-9-inside-1_2_71" fill="white">
<ellipse cx="324" cy="356.5" rx="8" ry="7.5"/>
</mask>
<ellipse cx="324" cy="356.5" rx="8" ry="7.5" fill="white"/>
<path d="M317 356.5C317 351.461 321.061 349 324 349V379C335.776 379 347 369.824 347 356.5H317ZM324 349C326.939 349 331 351.461 331 356.5H301C301 369.824 312.224 379 324 379V349ZM331 356.5C331 361.539 326.939 364 324 364V334C312.224 334 301 343.176 301 356.5H331ZM324 364C321.061 364 317 361.539 317 356.5H347C347 343.176 335.776 334 324 334V364Z" fill="white" mask="url(#path-9-inside-1_2_71)"/>
<circle cx="459" cy="347" r="41" fill="white"/>
<path d="M467.5 355.5C467.5 364.346 459.559 372.5 448.5 372.5C437.442 372.5 429.5 364.346 429.5 355.5C429.5 346.654 437.442 338.5 448.5 338.5C459.559 338.5 467.5 346.654 467.5 355.5Z" fill="black" stroke="black" stroke-width="15"/>
<mask id="path-13-inside-2_2_71" fill="white">
<ellipse cx="440" cy="356.5" rx="8" ry="7.5"/>
</mask>
<ellipse cx="440" cy="356.5" rx="8" ry="7.5" fill="white"/>
<path d="M433 356.5C433 351.461 437.061 349 440 349V379C451.776 379 463 369.824 463 356.5H433ZM440 349C442.939 349 447 351.461 447 356.5H417C417 369.824 428.224 379 440 379V349ZM447 356.5C447 361.539 442.939 364 440 364V334C428.224 334 417 343.176 417 356.5H447ZM440 364C437.061 364 433 361.539 433 356.5H463C463 343.176 451.776 334 440 334V364Z" fill="white" mask="url(#path-13-inside-2_2_71)"/>
</g>
<defs>
<linearGradient id="paint0_linear_2_71" x1="403.444" y1="208" x2="403.444" y2="644" gradientUnits="userSpaceOnUse">
<stop stop-color="#FCE6D1"/>
<stop offset="1" stop-color="#F6B070"/>
</linearGradient>
</defs>
</svg>
